<svg width="160" height="80" viewBox="0 0 160 80" fill="none" xmlns="http://www.w3.org/2000/svg">
<path d="M34.0504 27.4186V42.8968C34.0504 43.1477 33.9507 43.3884 33.7733 43.5658C33.5959 43.7432 33.3553 43.8428 33.1044 43.8428H28.2183C27.9674 43.8427 27.7269 43.743 27.5495 43.5656C27.3721 43.3883 27.2724 43.1477 27.2723 42.8968V17.7207C27.2723 17.4698 27.372 17.2292 27.5494 17.0517C27.7268 16.8743 27.9674 16.7747 28.2183 16.7747H32.7398C32.9907 16.7747 33.2313 16.8743 33.4087 17.0517C33.5862 17.2292 33.6858 17.4698 33.6858 17.7207V21.2661C33.6858 21.2661 35.3021 16.2086 40.099 16.2086C40.099 16.2086 44.8436 15.6351 46.7728 20.9012C46.7728 20.9012 48.3891 16.2086 53.2902 16.2086C53.2902 16.2086 60.5788 15.7753 60.5788 23.3171L60.6343 27.4707V42.949C60.6343 43.1999 60.5346 43.4405 60.3572 43.6179C60.1798 43.7953 59.9392 43.895 59.6883 43.895H54.8018C54.5509 43.8949 54.3104 43.7952 54.133 43.6178C53.9556 43.4404 53.8559 43.1998 53.8558 42.949L53.8112 26.0629C53.9501 22.2393 50.8567 22.5175 50.8567 22.5175C46.9638 22.5871 47.3384 27.4707 47.3384 27.4707V42.949C47.3384 43.1999 47.2387 43.4405 47.0613 43.6179C46.8839 43.7953 46.6433 43.895 46.3924 43.895H41.5063C41.2554 43.8949 41.0149 43.7952 40.8375 43.6178C40.6601 43.4404 40.5604 43.1998 40.5603 42.949V26.445C40.5603 26.445 40.846 22.4824 37.3698 22.4824C37.3702 22.4824 33.929 22.0307 34.0504 27.4186ZM160 27.3723V42.8501C160 43.101 159.9 43.3415 159.723 43.5189C159.545 43.6963 159.305 43.796 159.054 43.7961L153.972 43.8946C153.721 43.8945 153.481 43.7948 153.303 43.6174C153.126 43.44 153.026 43.1994 153.026 42.9486V26.445C153.026 26.445 153.312 22.4824 149.836 22.4824C149.836 22.4824 146.516 22.3189 146.516 28.5318V42.8964C146.516 43.1473 146.417 43.3878 146.239 43.5652C146.062 43.7426 145.821 43.8423 145.57 43.8424H140.684C140.433 43.8423 140.192 43.7426 140.015 43.5652C139.838 43.3878 139.738 43.1473 139.738 42.8964V17.7207C139.738 17.4698 139.838 17.2293 140.015 17.0519C140.192 16.8745 140.433 16.7748 140.684 16.7747H145.205C145.456 16.7747 145.697 16.8743 145.874 17.0517C146.052 17.2292 146.151 17.4698 146.151 17.7207V21.2661C146.151 21.2661 147.768 16.2086 152.565 16.2086C152.565 16.2086 157.703 15.4291 159.434 20.8031C159.434 20.8027 160 21.9114 160 27.3723ZM124.721 16.1044C118.472 16.1044 113.406 21.3704 113.406 30.2341C113.406 38.0379 117.317 44.3638 124.721 44.3638C131.707 44.3638 136.035 38.0379 136.035 30.2341C136.035 21.5268 130.969 16.1044 124.721 16.1044ZM128.664 30.5469C128.664 33.8838 128.247 35.6566 128.247 35.6566C127.654 39.1841 125.093 39.1891 124.716 39.1703C124.308 39.1866 121.726 39.1499 121.191 35.6566C121.191 35.6566 120.774 33.8838 120.774 30.5469V29.9909C120.774 26.654 121.191 24.8813 121.191 24.8813C121.726 21.3879 124.308 21.3512 124.716 21.3671C125.093 21.3483 127.654 21.3529 128.247 24.8813C128.247 24.8813 128.664 26.654 128.664 29.9909V30.5469ZM110.57 21.2311V17.6189C110.57 17.368 110.471 17.1275 110.293 16.9501C110.116 16.7727 109.875 16.673 109.624 16.6729H93.4737C93.2228 16.6729 92.9822 16.7726 92.8047 16.95C92.6273 17.1274 92.5277 17.368 92.5277 17.6189V21.2032C92.5278 21.454 92.6275 21.6946 92.8049 21.872C92.9822 22.0494 93.2228 22.1491 93.4737 22.1492H101.898L91.9266 36.6147C91.9266 36.6147 91.5337 37.2011 91.5466 37.8489V42.2491C91.5466 42.2491 91.4815 43.7578 93.1925 42.8822C93.1925 42.8822 96.2316 41.0461 101.328 41.0461C101.328 41.0461 106.36 40.9835 109.715 43.0403C109.715 43.0403 111.108 43.6735 111.108 42.2812V38.4512C111.108 38.4512 111.234 37.4376 109.905 36.8049C109.905 36.8049 106.043 34.6843 100.979 35.0321L110.57 21.2311ZM23.5012 39.3405L21.9716 37.0122C21.4848 36.1429 21.5199 35.1694 21.5199 35.1694V24.4291C21.7284 15.1483 11.4395 15.9479 11.4395 15.9479C2.29301 15.9479 0.941978 23.066 0.941978 23.066C0.560736 24.4971 1.66942 24.5317 1.66942 24.5317L6.1388 24.9851C6.1388 24.9851 6.90087 25.1595 7.17825 24.2523C7.17825 24.2523 7.76679 21.1468 11.0582 21.1468C14.6396 21.1468 14.6025 24.2206 14.6025 24.2206V26.7937C7.45312 27.0327 4.13999 29.0174 4.13999 29.0174C-0.274326 31.5201 0.00347176 36.4908 0.00347176 36.4908C0.00347176 44.5895 7.72008 44.2416 7.72008 44.2416C12.6558 44.2416 15.5756 40.6269 15.5756 40.6269C16.4444 42.1569 18.0436 43.6159 18.0436 43.6159C18.8437 44.4835 19.6775 43.7553 19.6775 43.7553L23.2926 40.6619C24.0918 40.0705 23.5012 39.3405 23.5012 39.3405ZM10.1289 39.2404C7.80725 39.2404 6.94425 36.9334 7.32966 34.6659C7.71549 32.3985 9.7193 30.6166 14.6029 30.6687V32.0473C14.776 38.0696 12.0614 39.2404 10.1289 39.2404ZM88.4316 39.3405L86.9025 37.0122C86.4157 36.1429 86.4503 35.1694 86.4503 35.1694V24.4291C86.6589 15.1483 76.3699 15.9479 76.3699 15.9479C67.2235 15.9479 65.8724 23.066 65.8724 23.066C65.4912 24.4971 66.5999 24.5317 66.5999 24.5317L71.0692 24.9851C71.0692 24.9851 71.8313 25.1595 72.1087 24.2523C72.1087 24.2523 72.6972 21.1468 75.9887 21.1468C79.57 21.1468 79.5329 24.2206 79.5329 24.2206V26.7937C72.384 27.0327 69.0704 29.0174 69.0704 29.0174C64.6561 31.5201 64.9339 36.4908 64.9339 36.4908C64.9339 44.5895 72.6505 44.2416 72.6505 44.2416C77.5862 44.2416 80.506 40.6269 80.506 40.6269C81.3753 42.1569 82.9737 43.6159 82.9737 43.6159C83.7737 44.4835 84.6079 43.7553 84.6079 43.7553L88.2226 40.6619C89.0222 40.0705 88.4316 39.3405 88.4316 39.3405ZM75.0594 39.2404C72.7377 39.2404 71.8747 36.9334 72.2601 34.6659C72.6459 32.3985 74.6497 30.6166 79.5329 30.6687V32.0473C79.7064 38.0696 76.9923 39.2404 75.0594 39.2404Z" fill="black"/>
<path d="M100.735 59.6698C100.735 59.6698 100.326 60.381 100.828 60.5399C100.828 60.5399 101.395 60.7614 102.103 60.1049C102.103 60.1049 107.262 55.5979 107.387 47.3925C107.387 47.3925 107.424 46.3676 107.013 46.0873C107.013 46.0873 105.397 44.6575 99.5848 45.0925C99.5848 45.0925 94.5185 45.4346 91.7527 47.8901C91.7527 47.8901 91.5041 48.1074 91.5041 48.3869C91.5041 48.3869 91.4444 48.9904 92.9648 48.7289C92.9648 48.7289 98.0306 48.0136 101.046 48.3869C101.046 48.3869 102.6 48.5733 103.035 49.1022C103.035 49.1022 103.75 49.6929 103.377 51.6504C103.377 51.6512 102.351 56.624 100.735 59.6698Z" fill="black"/>
<path d="M99.7133 51.7976C99.7133 51.7976 100.47 52.7778 99.249 53.6233C99.249 53.6233 86.2071 64.0553 64.3087 64.0553C64.3087 64.0553 41.767 65.1674 22.9447 48.0657C22.9447 48.0657 22.2849 47.4863 22.6945 46.9478C22.6945 46.9478 23.0607 46.4523 24.0088 46.9912C24.0088 46.9912 41.7149 58.0243 64.9689 58.0243C64.9689 58.0243 81.1321 58.65 97.7124 51.559C97.7124 51.559 99.0334 50.8745 99.7133 51.7976Z" fill="black"/>
</svg>
