<svg width="160" height="80" viewBox="0 0 160 80" fill="none" xmlns="http://www.w3.org/2000/svg">
<path d="M0.434445 47.7247C0.0573658 47.7247 -0.107105 47.3637 0.0734117 47.0327L10.9967 32.8872C11.2574 32.5513 11.6315 32.2735 12.0096 32.2735H24.8242C25.3327 32.2735 25.5162 32.6877 25.1251 33.1931L14.609 46.8101C14.2209 47.3175 13.6693 47.7247 13.1609 47.7247H0.434445ZM16.8384 47.7247C16.4603 47.7247 16.2998 47.3637 16.4773 47.0327L27.3986 32.8872C27.6593 32.5513 28.0354 32.2735 28.4115 32.2735H34.2612C34.7677 32.2735 34.9522 32.6877 34.5611 33.1931L24.045 46.8101C23.6509 47.3175 23.1043 47.7247 22.5979 47.7247H16.8384ZM26.8229 47.7247C26.4419 47.7247 26.2804 47.3637 26.4619 47.0327L37.3832 32.8872C37.6399 32.5513 38.017 32.2735 38.3961 32.2735H42.7575C43.265 32.2735 43.4495 32.6877 43.0584 33.1931L32.5413 46.8101C32.1532 47.3175 31.6016 47.7247 31.1002 47.7247H26.8229ZM38.8112 47.7247C39.3187 47.7247 39.8663 47.3175 40.2524 46.8101L50.7725 33.1931C51.1626 32.6877 50.9781 32.2735 50.4716 32.2735H47.4831C47.108 32.2735 46.7309 32.5513 46.4752 32.8872L35.5479 47.0327C35.3714 47.3637 35.5379 47.7247 35.914 47.7247H38.8112ZM46.1502 47.7247C46.6517 47.7247 47.2033 47.3175 47.5924 46.8101L58.1115 33.1931C58.4996 32.6877 58.315 32.2735 57.8076 32.2735H55.7076C55.3305 32.2735 54.9554 32.5513 54.6997 32.8872L43.7724 47.0327C43.5959 47.3637 43.7624 47.7247 44.1335 47.7247H46.1502ZM56.4627 47.7247H51.4083C51.0312 47.7247 50.8667 47.3637 51.0442 47.0327L61.9695 32.8872C62.2252 32.5513 62.6003 32.2735 62.9804 32.2735H86.4676C87.0994 32.2735 87.4905 32.798 87.4905 33.4298V46.8071C87.4897 47.05 87.3929 47.2828 87.2212 47.4547C87.0495 47.6266 86.8168 47.7236 86.5739 47.7247H82.6627C82.4197 47.7234 82.1871 47.6263 82.0153 47.4545C81.8435 47.2827 81.7464 47.05 81.7451 46.8071V44.8655C81.7451 44.321 81.6949 44.1053 81.1484 44.1053H60.5855C60.2045 44.1053 59.9377 44.3781 59.6679 44.7051L59.6078 44.7853L58.0423 46.8131C57.6471 47.3215 57.1016 47.7287 56.5951 47.7287H56.4617L56.4627 47.7247ZM66.6038 36.1757C66.353 36.1757 66.1194 36.3622 65.9439 36.5868L63.532 39.7078C63.3585 39.9334 63.4718 40.1179 63.7295 40.1179H81.1484C81.699 40.1179 81.7421 39.9053 81.7451 39.3608V37.1946C81.7451 36.4534 81.7651 36.1757 81.1484 36.1757H66.6038ZM110.694 43.0423C110.265 43.3111 109.961 43.5808 109.459 43.5808H105.573C105.072 43.5808 104.766 43.3111 104.339 43.0423L96.8553 38.3068C96.4291 38.038 96.0761 38.2265 96.0761 38.733V46.8071C96.0761 47.0504 95.9794 47.2838 95.8073 47.4559C95.6352 47.628 95.4018 47.7247 95.1585 47.7247H91.2443C91.0011 47.7242 90.768 47.6273 90.596 47.4553C90.424 47.2834 90.3272 47.0503 90.3266 46.8071V33.1921C90.3266 32.6877 90.7408 32.2745 91.2443 32.2745H95.4363C95.9377 32.2745 96.2386 32.4941 96.6668 32.7659L106.875 39.3768C107.298 39.6476 107.72 39.6476 108.145 39.3768L118.353 32.7699C118.78 32.4971 119.083 32.2785 119.587 32.2785H123.776C124.278 32.2785 124.689 32.6917 124.689 33.1961V46.8111C124.689 47.3175 124.278 47.7287 123.776 47.7287H119.865C119.621 47.7287 119.387 47.6322 119.215 47.4602C119.042 47.2883 118.944 47.0549 118.943 46.8111V38.737C118.943 38.2305 118.596 38.042 118.168 38.3108L110.719 43.0293L110.699 43.0393M160 39.2745C159.999 39.0317 159.902 38.7993 159.73 38.6278C159.558 38.4563 159.325 38.3597 159.082 38.3589H144.002C143.76 38.3602 143.527 38.457 143.356 38.6284C143.184 38.7998 143.086 39.0319 143.085 39.2745V40.5652C143.085 41.0707 143.501 41.5059 144.002 41.5059H153.483C154.118 41.5059 154.087 41.7837 154.087 42.5238V42.6813C154.087 43.4164 154.117 43.5778 153.491 43.5778H134.188C134.068 43.5776 133.949 43.5536 133.838 43.5073C133.727 43.461 133.627 43.3934 133.542 43.3081C133.457 43.2229 133.39 43.1218 133.345 43.0106C133.299 42.8994 133.276 42.7804 133.277 42.6602V37.0782C133.277 36.5758 133.682 36.1616 134.188 36.1616H159.082C159.587 36.1616 160 35.7504 160 35.247V33.1891C159.999 32.9461 159.902 32.7135 159.73 32.5417C159.558 32.3699 159.325 32.2728 159.082 32.2715H128.448C128.205 32.2728 127.973 32.37 127.801 32.5418C127.63 32.7137 127.533 32.9463 127.532 33.1891V46.8051C127.532 47.3115 127.943 47.7227 128.448 47.7227H159.082C159.587 47.7227 160 47.3115 160 46.8051V39.1181" fill="black"/>
</svg>
