<svg width="160" height="80" viewBox="0 0 160 80" fill="none" xmlns="http://www.w3.org/2000/svg">
<path d="M61.4461 59.5049C55.4937 55.6722 47.4148 54.9963 34.3811 58.6124C20.4876 61.8741 15.8542 63.9676 9.7705 59.7674C7.43414 57.7067 6.5941 54.3794 7.22413 49.5951C8.67451 41.7919 12.5991 34.284 19.5622 25.9558C23.4474 21.6243 27.057 17.9032 31.8216 16.4135C35.4705 15.475 35.1292 18.3429 34.6895 18.7564C34.2236 18.7564 33.4426 18.8286 32.8388 19.2223C32.3466 19.603 31.0012 20.8302 30.929 22.4841C30.824 25.0173 33.4426 24.4923 34.578 23.101C35.7986 21.5325 37.5969 18.5332 36.1793 15.7375C35.5886 14.7399 34.5583 14.0574 33.2851 13.8211C28.9274 13.5718 24.865 15.6522 21.1176 17.9492C12.9075 23.6457 6.35127 31.5342 2.64328 40.1709C0.503803 45.3817 -1.43223 52.8437 1.46854 58.9208C3.71302 63.1342 8.36606 65.3787 13.9248 64.9061C17.8231 64.4992 22.5352 63.2392 25.705 62.4779C28.8749 61.7166 45.0982 56.1382 50.4272 65.8446C50.4272 65.8446 52.1991 62.4057 56.629 62.3335C60.2714 61.9988 65.5217 63.3901 69.3478 66.199C68.0746 64.2761 64.4585 61.4541 61.4461 59.5049Z" fill="black"/>
<path d="M36.0349 26.9402C33.0029 24.9517 26.8995 28.7581 22.0167 35.2816C17.5474 41.1356 15.618 47.9412 17.7181 51.0914C20.842 54.7928 26.6369 49.4113 29.1046 46.5237L29.4196 46.189C31.0931 44.3908 32.3925 42.225 33.646 40.1446C33.646 40.1446 34.8011 38.2414 34.8536 38.1561C35.5624 38.0248 36.4221 37.8214 37.3868 37.5392C37.3737 37.5851 33.692 43.7738 34.0661 46.8452C34.1842 47.7837 34.0923 51.2095 37.4394 52.2464C41.8955 52.9946 45.4526 49.536 48.5961 46.4646C48.5961 46.4646 49.1343 45.9527 49.4362 45.6574C49.3574 45.9658 49.259 46.3727 49.259 46.3727C47.953 50.9076 49.7118 51.8658 50.8144 52.2136C54.1417 53.1784 58.1122 48.3481 58.1254 48.3481C58.0204 49.8707 57.7185 51.1308 59.3264 52.1414C60.8424 52.6862 62.3715 51.8592 63.5397 51.0783C67.7333 48.1184 71.1132 43.4916 73.8433 39.4949H72.1042C72.0845 39.4949 67.8055 45.6902 65.0294 47.0421C65.0229 47.0421 64.5175 47.3046 64.2288 47.0946C63.8678 46.7862 64.0122 46.1496 64.2353 45.6968C64.2485 45.6705 74.959 27.0977 74.959 27.0977H69.9056C69.9056 27.0977 69.3543 27.9903 69.3084 28.0493C69.2756 28.0231 69.1903 27.8656 69.1378 27.7934C66.0073 23.4619 58.9129 30.1232 53.5708 37.8542C51.5166 40.8271 48.898 44.1742 46.181 46.5893C46.181 46.5893 42.158 50.2776 40.4451 47.6262C39.8151 46.5105 40.012 44.8895 40.3664 43.8198C42.368 38.1233 45.8135 32.9583 49.7381 29.841C50.8472 28.9747 52.0482 28.7253 52.6454 29.0928C53.2164 29.4275 53.3082 30.261 52.9473 30.832C52.0351 30.8057 51.3 31.0814 50.7094 31.6983C49.5346 32.9255 49.1277 34.1134 49.5018 35.2291C51.3131 37.8082 54.9227 32.7089 54.7455 29.6047C54.6799 28.489 54.0892 27.439 53.2032 26.9271C51.8841 26.1396 49.8693 26.343 48.5633 26.973C46.8176 27.6293 44.0547 29.9263 42.4468 31.7179C40.4189 33.9559 36.934 36.4432 35.8446 36.1675C36.1859 35.2094 39.126 29.1913 36.0349 26.9402ZM60.4092 35.8394C61.3936 34.4809 64.255 30.832 64.9507 30.2216C67.3002 28.1543 68.2387 29.0666 68.3174 29.7097C66.1254 33.6343 63.5397 38.1298 61.1114 42.166C61.118 42.1528 60.3502 43.321 60.3502 43.321C59.2738 44.9617 58.1975 46.3662 56.4322 47.344C56.1828 47.4162 55.7693 47.449 55.4937 47.239C55.159 47.0224 55.0277 46.6549 55.0671 46.2743C55.1721 45.0142 56.4518 41.1684 60.4092 35.8394ZM32.9044 38.1955C32.9044 38.1955 32.8585 38.3267 32.8388 38.3726C32.8323 38.3726 30.6337 41.9559 30.6337 41.9559C29.308 43.7279 27.6476 45.9527 25.5803 47.0224C24.9634 47.2259 24.1168 47.3571 23.6837 46.819C22.7649 45.723 23.2374 44.2004 23.6246 42.9666L23.7624 42.5269C24.865 39.5408 26.6107 36.9026 28.3105 34.4612C28.3302 34.4481 28.3761 34.435 28.3958 34.435C28.4023 34.4481 28.4089 34.4481 28.4089 34.4809C29.4786 36.5285 31.4737 37.4801 32.9701 37.9198C32.9766 37.9198 32.9898 37.9329 32.9898 37.9658C32.9898 38.0051 32.9635 38.0642 32.9044 38.1955ZM34.9849 33.9624C34.9783 33.9887 34.007 36.2135 34.007 36.2135C33.8692 36.3316 33.646 36.2725 33.3901 36.2135L32.9569 36.1413C31.5919 35.7147 30.5615 34.809 30.2399 33.7262C29.8002 31.6195 31.605 29.9657 32.3925 29.3619C33.1538 28.8369 34.3351 28.5547 35.0242 29.0994C35.4508 29.5982 35.6083 30.2413 35.6083 30.9435C35.6149 31.9017 35.3196 32.9714 34.9849 33.9624ZM98.9002 40.755C98.4145 39.6983 97.2529 39.0289 96.0191 39.1011C92.0158 39.4686 88.0978 42.7632 86.037 47.4884C84.9607 49.9166 84.3701 51.9249 83.9829 55.1144C85.2298 53.6771 87.7696 51.3211 90.6507 50.0348C90.6507 50.0348 91.0445 46.9765 93.0461 44.2529C93.8008 43.1241 95.3169 41.3128 97.0166 41.7919C98.4998 42.2907 97.9814 46.4055 96.006 50.3826C94.5424 53.3096 92.3111 56.2366 90.0469 58.258C88.0453 59.9578 85.0854 62.0054 82.4997 60.4237C80.8655 59.459 80.0386 57.4376 80.2092 54.8322C80.9902 47.4425 84.3504 41.1487 89.1675 33.9756C94.1355 27.3143 99.6089 20.4824 106.979 16.8335C108.482 16.0722 109.873 15.895 111.081 16.3675C111.081 16.3675 104.157 20.1739 100.862 27.2159C100.022 29.0009 98.8542 31.4161 100.029 33.5555C100.646 34.6647 101.735 34.7565 102.615 34.6975C106.657 33.759 109.269 29.9854 111.409 26.5268C112.649 23.9082 113.745 21.3028 113.745 18.402C113.745 18.0476 113.726 17.5816 113.699 17.2338C115.629 16.21 119.593 18.0213 119.593 18.0213C122.69 19.0451 129.279 24.0985 131.504 25.0633C132.587 23.8032 134.372 21.9 135.376 20.9484L133.926 20.0558C131.603 18.6382 129.142 17.2863 126.72 15.9541C121.227 12.9548 116.751 14.0049 114.474 14.8253C113.581 15.1468 112.761 15.4225 112.761 15.4225C111.074 13.5783 108.298 13.7555 106.257 14.2543C98.9133 16.361 92.0945 21.4996 84.7835 30.4119C79.4086 37.3948 76.0747 43.426 74.2961 49.3851C72.9245 53.3949 72.5111 59.2949 75.8515 62.7929C78.6932 65.7659 82.4603 65.1227 85.1248 64.053C90.8935 61.2178 96.0781 55.1013 98.6573 48.0594C99.2808 45.9658 99.9699 43.0126 98.9002 40.755ZM112.157 18.6973C111.396 27.4521 104.59 32.5908 102.903 32.9977C101.886 33.2011 100.141 32.7483 101.696 29.0731C103.986 24.1248 107.891 19.9246 112.085 17.772C112.19 18.1395 112.19 18.3757 112.157 18.6973ZM152.518 19.8064C148.856 21.8868 145.063 23.2322 140.469 22.7663C139.196 24.2035 137.955 25.6802 136.814 27.2027C143.258 28.8434 150.097 25.1945 153.903 21.7293C157.933 18.2314 160 13.8277 160 13.8277C160 13.8277 156.988 17.2732 152.518 19.8064ZM83.3528 27.0977H78.5489L75.8384 31.4948H80.6358L83.3528 27.0977Z" fill="black"/>
<path d="M140.456 59.9118C139.937 60.2662 139.216 59.9906 139.485 59.1899C140.161 57.1423 142.845 52.9618 142.845 52.9618L150.326 39.6983H145.201C144.958 40.0987 144.44 41.0175 144.44 41.0175C144.203 40.6237 143.495 39.7443 143.199 39.554C141.946 38.7599 140.108 39.1339 138.841 39.8558C133.335 43.0782 129.312 49.4376 126.142 54.4056C126.142 54.4056 122.809 59.9249 120.951 60.3318C119.507 60.45 119.652 58.5008 119.717 58.048C120.275 54.7666 121.575 51.6492 122.881 48.8272C125.539 46.9831 128.577 44.568 131.334 41.9166C137.319 36.1938 142.372 29.7097 143.107 28.2593C143.107 28.2593 142.307 28.4234 141.368 28.4497C136.761 34.8747 127.337 44.2136 124.475 45.6049C125.742 42.5597 133.919 28.0231 140.883 21.0731L141.979 20.0164C143.672 18.3626 145.431 16.6628 146.796 16.3872C146.94 16.3741 147.124 16.3872 147.288 16.7219C147.347 18.0082 146.868 18.9598 146.317 20.0427L145.549 21.6243C145.549 21.6243 146.638 21.4209 147.36 21.1846C148.193 19.6161 149.112 17.8638 148.771 15.7703C148.659 15.0943 148.167 14.5824 147.531 14.4643C145.457 14.0705 143.193 15.6062 141.368 16.8532L141.296 16.8991C131.937 24.2298 124.029 34.8025 117.119 49.2341C116.62 49.6148 114.684 50.0676 114.356 49.851C115.038 48.4466 115.898 46.5565 116.324 44.5089C116.397 43.9248 116.469 43.321 116.469 42.7369C116.469 41.4769 116.167 40.289 115.038 39.4752C113.712 38.8189 112.078 39.1208 110.976 39.6196C106.034 41.6672 102.346 46.7337 99.6811 50.9076C98.2504 53.559 96.8197 56.3942 96.426 59.6493C96.1503 62.1957 96.7147 63.8364 98.1651 64.6567C99.6549 65.418 101.525 64.6239 102.267 64.2433C107.274 61.605 110.766 56.322 113.522 51.4917C113.634 51.4786 115.137 51.4327 116.272 51.1373C116.285 51.1373 116.292 51.1373 116.318 51.1505C116.252 51.367 115.662 53.1259 115.662 53.1259C113.916 58.2514 113.109 61.7297 114.756 63.797C117.112 66.7109 121.017 63.692 124.193 59.7149C123.511 64.4861 125.985 65.2343 127.868 64.8668C130.034 64.2827 132.449 61.966 133.565 60.7847C133.204 62.176 133.302 64.6633 135.271 64.9127C136.623 65.1621 137.634 64.427 138.802 63.797C142.996 61.5132 148.016 53.9003 149.322 51.7017H147.616C145.778 54.4975 143.422 58.1727 140.456 59.9118ZM102.805 59.4065C102.536 59.0127 102.451 58.5796 102.444 58.1136C102.392 55.2457 105.483 50.1004 107.662 47.3046H107.668C108.58 49.3063 110.648 50.5926 111.901 51.1308C110.346 54.5828 105.03 61.9791 102.805 59.4065ZM112.774 49.5819C112.63 49.687 110.018 48.8075 109.512 46.3924C109.086 44.312 110.516 42.691 111.901 41.8706C112.498 41.4047 113.391 41.2406 114.047 41.4769C114.657 41.8903 114.822 42.6188 114.822 43.4063C114.822 43.892 114.756 44.3908 114.703 44.8436L114.69 44.9486C114.251 46.563 113.607 48.125 112.774 49.5819ZM133.696 58.4811L133.204 58.9208C132.502 59.5509 131.773 60.2203 130.9 59.8856C130.658 59.8003 130.487 59.4787 130.448 59.2293C130.408 57.4311 131.215 55.7576 132.003 54.1365L132.206 53.71C134.471 49.9363 137.096 45.4867 140.961 42.3957C141.611 41.9231 142.32 41.5294 143.061 41.8378C143.232 42.0019 143.435 42.2775 143.435 42.5532C143.435 42.6385 143.357 42.8747 143.311 42.9469C142.234 44.6926 141.204 46.5171 140.207 48.2759C138.251 51.7477 136.223 55.3375 133.696 58.4811Z" fill="black"/>
</svg>
