<svg width="160" height="80" viewBox="0 0 160 80" fill="none" xmlns="http://www.w3.org/2000/svg">
<path d="M72.5132 29.2577L72.7496 29.3299C73.4419 29.6004 73.7176 30.2604 73.8803 30.9656C74.248 32.627 74.3672 36.2789 74.4105 37.7025C74.4441 38.7657 74.4542 39.8415 74.4694 40.899C74.493 41.8002 74.5481 42.989 74.3535 43.8237C74.283 44.1201 74.0757 44.4741 73.7857 44.644C73.448 44.8392 72.6909 44.8468 72.2798 44.7613C71.2578 44.5294 70.922 43.871 70.7936 42.8583C70.4781 40.438 70.7275 35.7065 70.958 33.7106C71.0372 33.0594 71.3247 30.9418 71.6744 30.0551C71.8048 29.7571 72.0659 29.1612 72.5132 29.2577ZM69.5587 22.4576C69.5587 22.4576 69.993 21.8152 70.3772 21.3364C71.0454 20.447 72.27 19.231 73.176 18.4741C73.4647 18.2441 73.7824 17.9834 73.7824 17.9834C73.7824 17.9834 73.2726 18.0267 72.9794 18.0765C72.2854 18.2027 71.2742 18.848 70.7681 19.2701C69.9206 19.9656 69.0002 21.0956 69.3999 22.1311C69.4576 22.2679 69.5587 22.4576 69.5587 22.4576ZM70.779 26.1469C70.6383 26.2829 70.4912 26.6353 70.3409 26.8677C70.2603 27.002 70.1085 27.1744 70.0135 27.2249C69.6595 27.4746 69.3826 27.4697 69.0508 27.1898C68.6012 26.7747 68.3382 26.1383 68.3226 25.5376C68.3218 25.2792 68.3739 24.9772 68.3258 24.744C68.2437 24.3615 67.8669 23.9685 67.6827 23.5945C67.437 23.1622 67.2673 22.4152 67.2365 21.9291C67.1793 20.4217 67.9915 19.0599 69.0335 17.9868C70.0811 16.8954 71.4646 16.0059 72.9579 15.4079C74.3619 14.8423 76.4203 14.4761 77.9379 15.0377C78.4413 15.211 79.1201 15.656 79.4624 16.0981C79.531 16.1984 79.5998 16.2989 79.667 16.3392C79.7341 16.3795 79.9088 16.393 80.0543 16.4373C80.5435 16.5268 81.239 16.9175 81.522 17.1626C82.0822 17.671 82.395 18.1438 82.5396 18.8433C82.8102 20.2368 81.9902 21.7552 81.0581 22.663C79.4696 24.2254 77.905 25.3181 75.8869 26.0741C75.0118 26.4034 73.6308 26.6978 72.6301 26.5917C72.3226 26.5575 72.0081 26.4815 71.7006 26.4475C71.544 26.4395 70.9751 26.286 70.9316 26.2331C70.888 26.1801 70.7845 26.1286 70.779 26.1469ZM74.1437 23.7749C75.4378 23.7119 76.7008 23.3563 77.8378 22.735C78.9761 22.1282 80.6284 20.943 80.4889 19.5099C80.4416 19.0784 80.1611 18.6947 79.7596 18.513C79.2547 18.2797 79.0032 18.3222 78.3708 18.5069C77.9115 18.6453 77.6911 18.7171 77.2585 18.9628C75.9669 19.6817 74.1199 21.2448 73.1244 22.491C72.8975 22.7795 72.654 23.1225 72.4674 23.3437C72.3448 23.4853 72.2641 23.6194 72.2768 23.6432C72.2745 23.7815 73.6213 23.7946 74.1437 23.7749ZM68.6688 33.9867C68.7437 34.7843 68.5061 36.2814 68.4871 36.4743C68.4088 36.9271 68.0512 37.9704 67.9942 38.092C67.7411 38.6641 67.4524 39.2198 67.1299 39.7558C66.6237 40.6345 65.4219 42.0364 64.7039 42.6323C62.0444 44.8417 58.0001 46.0529 54.5111 46.4205C52.1547 46.6561 49.4412 46.5645 46.9515 46.0644C46.244 45.9085 45.5367 45.7525 44.8167 45.5729C44.8167 45.5729 44.8182 46.0898 44.7673 46.4518C44.7412 46.6027 44.6084 47.039 44.5459 47.1789C44.3568 47.5386 44.0613 47.7266 43.6185 47.8104C43.0921 47.9083 42.5332 47.9168 42.0589 47.7127C41.2741 47.3543 41.0023 46.6162 40.8841 45.7654C40.776 45.0769 40.6791 43.8953 40.6791 43.8953C40.6791 43.8953 40.0943 43.5979 39.5947 43.3465C38.1201 42.5793 36.7205 41.696 35.414 40.702C35.0586 40.4348 33.5822 39.1507 33.2615 38.8345C32.3425 37.9387 31.5198 37.0524 30.913 35.9139C30.4271 35.031 30.3104 34.2404 30.6892 33.3228C31.2389 32.04 33.1197 31.0834 34.3924 30.5574C35.3442 30.1718 38.2658 29.2541 39.4824 29.1082C40.0578 29.0451 40.9377 28.8959 41.0088 28.8581C41.0325 28.8454 41.0563 28.8328 41.0618 28.8146C41.0911 28.7838 41.1475 27.4898 41.153 27.0149C41.1532 26.5579 41.5612 23.5235 41.6767 22.8832C41.74 22.545 42.0298 21.2029 42.297 20.8474C42.4654 20.6205 42.7784 20.6365 43.0471 20.7978C44.4286 21.6756 44.8072 24.6713 44.8771 26.2024C44.9315 27.1328 44.9256 28.5215 44.9256 28.5215C44.9256 28.5215 46.5182 28.5101 47.4992 28.5508C48.4382 28.5983 49.5005 28.7631 50.4789 28.9421C51.7413 29.1677 54.1907 29.7351 55.5928 30.48C56.7387 31.0874 57.823 32.093 58.1571 33.1485C58.4769 34.1199 58.4159 34.7767 57.8916 35.6501C57.3158 36.6269 56.2463 37.334 55.1648 37.3623C54.8408 37.3826 53.6457 37.1974 53.2774 36.9064C53.136 36.7838 53.1368 36.5854 53.2593 36.4441C53.2941 36.395 53.8579 36.1098 54.208 35.9384C54.3741 35.8498 54.5219 35.7559 54.657 35.6381C54.9274 35.4027 55.1853 35.1435 55.1648 34.8195C55.13 34.4115 54.7144 34.1458 54.3074 33.9822C52.3869 33.1783 48.5455 32.4851 46.684 32.3351C45.9489 32.2702 44.9261 32.2367 44.9261 32.2367L44.9771 42.5029C44.9771 42.5029 45.8355 42.685 46.4992 42.788C46.8797 42.844 48.5317 43.0293 48.9647 43.0422C52.2987 43.1838 56.0021 42.9611 59.0677 41.5708C60.4227 40.9703 61.6528 40.1931 62.6056 39.1522C63.8619 37.7669 64.5217 35.8622 64.3974 33.8575C64.2501 31.6672 62.7451 29.0434 61.5251 27.4401C58.3249 23.207 52.8046 19.6779 47.9226 17.5748C42.9315 15.4385 37.9988 14.1542 32.6832 13.8659C31.3167 13.7874 28.3113 13.8055 26.8007 14.1996C26.5858 14.2532 26.3651 14.325 26.1557 14.3606C26.0062 14.3946 25.7382 14.4917 25.6797 14.5533C25.6504 14.5842 25.5976 14.6276 25.5976 14.6276C25.5976 14.6276 25.6829 14.6736 25.7865 14.7249C25.9444 14.7929 26.6196 14.8594 26.9578 14.9229C27.2779 14.9807 27.5831 15.1528 27.7094 15.3902C27.8231 15.6036 27.8516 15.7712 27.6942 15.9616C27.3503 16.3734 26.0493 16.2752 25.4817 16.1817C24.896 16.0827 24.1634 15.8793 24.0418 15.3655C23.8878 14.7623 24.1851 14.1776 24.5132 13.6219C25.1641 12.5288 26.0639 11.9886 27.3776 11.6537C29.2525 11.172 31.5949 10.8525 33.3496 10.8309C37.3271 10.7513 41.0681 11.5135 44.9052 12.7421C47.0939 13.4486 49.9613 14.6002 52.0627 15.6576C53.5611 16.412 55.9417 17.7928 57.2575 18.6903C57.6858 18.9797 60.1205 20.8339 60.5013 21.1486C61.3892 21.9114 62.2463 22.7093 63.0706 23.5404C64.5278 25.0173 66.324 27.2728 67.1698 29.0603C67.3792 29.4816 67.5286 29.9046 67.8121 30.4082C67.9007 30.5743 68.2876 31.586 68.3556 31.8848C68.4237 32.1835 68.5126 32.6082 68.5308 32.6137C68.5175 32.7884 68.6903 33.6555 68.6688 33.9867ZM40.8412 32.3429C40.8412 32.3429 39.3228 32.4366 38.2848 32.5178C36.9592 32.6305 34.4566 33.0204 32.9966 33.5092C32.5553 33.653 31.6747 34.0006 31.5964 34.4535C31.5179 34.9063 31.7803 35.2843 32.1026 35.6606C32.2946 35.878 33.3132 36.9034 33.5963 37.1485C34.8078 38.1931 37.2602 39.7944 39.0841 40.5885C39.7164 40.8605 40.7304 41.2489 40.7304 41.2489C40.7304 41.2489 40.6956 38.2982 40.7646 35.3989C40.7965 33.859 40.8412 32.3429 40.8412 32.3429ZM85.7744 35.026C85.8527 35.0298 85.8709 35.0355 85.9254 35.0521C87.1386 35.2429 88.3172 35.4827 89.2419 35.9034C90.0756 36.2966 90.5687 36.7647 91.0056 37.613C91.6645 38.9063 91.6989 40.6847 91.0488 42.0362C90.564 43.0407 89.5393 43.8609 88.5946 44.2883C87.6207 44.7465 86.6641 44.9517 85.5608 45.0526C83.6414 45.2229 81.5864 44.7955 79.8808 43.9382C78.8638 43.4297 77.6443 42.5415 77.0265 41.4397C76.5786 40.6277 76.5993 39.5811 77.1869 38.8265C78.093 37.6126 80.0108 37.3823 81.4556 37.4649C82.5512 37.5206 84.5209 37.902 85.5767 38.2834C85.862 38.3902 86.9195 38.8315 87.1226 39.0126C87.2585 39.1532 87.3416 39.3375 87.2678 39.5137C87.0284 40.2352 85.2339 40.5826 84.7311 40.668C83.3651 40.8477 82.6483 40.3314 81.0986 39.6803C80.7096 39.5222 80.2062 39.3489 79.8023 39.3054C79.0909 39.2277 78.242 39.4061 78.0877 40.1737C78.0077 40.5665 78.4683 40.9452 78.8335 41.1161C79.6729 41.491 80.3439 41.6358 81.1738 41.65C83.6108 41.7371 86.3427 41.3774 88.3506 40.0025C88.6281 39.809 88.8915 39.5315 88.9002 39.1766C88.8932 39.1348 88.8349 38.7395 88.7258 38.7062C88.7075 38.7007 88.684 38.7135 88.6657 38.7081C88.6292 38.6969 88.5479 38.5728 88.4738 38.4905C88.3305 38.3081 87.7528 38.0525 87.6492 38.001C86.3177 37.4167 83.8506 37.1022 82.5789 36.9729C81.2472 36.8452 79.1494 36.6233 78.6363 36.5467C78.1232 36.4697 77.5432 36.3527 77.1109 36.1415C76.6605 35.9249 76.2219 35.4734 76.1003 34.9595C75.8838 34.0394 76.2035 32.925 76.7198 32.2082C78.0713 30.3155 81.1921 29.657 83.5358 29.3976C85.7958 29.1525 89.4287 29.2262 91.6242 30.4314C91.9655 30.6148 92.1323 30.7848 92.0578 31.1594C91.9075 31.8487 91.3832 32.265 90.751 32.4497C90.0948 32.6474 88.7438 32.7126 88.1431 32.7281C85.4707 32.8279 82.2513 32.7013 79.7075 33.3568C79.5106 33.4159 79.1699 33.4909 79.0529 33.6143C78.6433 34.0456 79.7769 34.1724 80.0368 34.2319C80.1096 34.2539 80.1277 34.2594 80.1877 34.2579L85.7744 35.026ZM93.9424 45.1229C92.8738 44.718 92.6483 42.9805 92.6192 42.0976C92.4968 39.2393 93.3071 35.2746 94.3143 32.6213C94.6069 31.8563 95.0197 30.6313 95.8695 30.7115C96.448 30.7685 96.8628 31.2326 97.1994 31.6926C98.0931 32.9978 98.9629 34.3157 99.8276 35.6518C100.63 36.9294 101.396 38.196 102.154 39.3603C102.248 39.5082 102.33 39.6325 102.44 39.7258C102.582 39.8481 102.702 39.8451 102.772 39.747C102.806 39.698 102.769 38.2564 102.737 37.9685C102.677 37.5134 102.655 37.1291 102.615 36.7394C102.489 35.5885 102.152 33.9561 101.871 32.8574C101.574 31.6147 101.192 30.3261 100.938 29.1365C100.856 28.754 100.779 28.3532 100.77 27.9927C100.774 27.4575 101.121 27.166 101.674 27.3741C102.761 27.7846 104.181 30.1642 104.582 31.0015C104.715 31.2805 105.275 32.7027 105.394 33.0962C105.819 34.4379 106.09 35.8314 106.18 37.2297C106.278 38.6699 106.153 40.7772 105.51 42.1706C105.271 42.6937 104.802 43.3852 104.42 43.7258C103.815 44.2765 102.618 44.6864 101.793 44.1971C100.902 43.6673 99.464 41.0836 99.2183 40.651C98.3856 39.146 96.9436 36.1839 96.7251 35.8589C96.6743 35.7639 96.589 35.7183 96.5037 35.6723C96.4127 35.6446 96.3756 35.832 96.3604 35.9466C96.2021 36.7922 96.0415 40.7761 96.0263 40.8907C96.0016 41.5585 95.9364 43.2074 95.7291 44.0183C95.5866 44.5511 95.4593 44.9692 94.9724 45.1984C94.6277 45.3515 94.355 45.2685 93.9424 45.1229ZM108.784 45.1149C108.631 44.9686 108.494 44.828 108.34 44.6817C108.328 44.6579 107.952 44.0667 107.869 43.8824C107.798 43.722 107.753 43.6089 107.708 43.4958C107.372 42.5789 107.385 41.6888 107.6 40.7214C107.799 39.8084 107.966 39.7801 108.463 38.5409L108.524 38.3408C108.537 38.1662 108.291 37.0183 108.287 36.6398C108.279 36.0811 108.719 35.6788 109.451 35.6237C109.511 35.6218 109.571 35.6205 109.613 35.6134C109.912 35.5454 110.102 34.9875 110.277 34.5441C110.507 33.9189 110.878 32.9594 110.878 32.9594C110.878 32.9594 109.953 32.7371 109.461 32.5275C108.914 32.3013 108.498 32.0355 108.238 31.5193C107.946 30.9137 108.142 30.596 108.774 30.4114C109.013 30.3449 110.82 30.0213 111.377 29.9527C112.078 29.8683 112.761 29.7784 113.439 29.7066C114.032 29.649 116.737 29.3803 117.579 29.4185C118.891 29.4805 119.735 30.0355 120.468 31.1528C120.862 31.7495 121.139 32.4697 120.511 32.8346C119.546 33.395 116.45 33.3853 115.897 33.3758C115.001 33.3811 113.744 33.3357 113.744 33.3357L113.089 35.4205C113.089 35.4205 115.307 35.4411 116.552 35.4627C116.847 35.473 117.16 35.489 117.329 35.5205C117.958 35.6725 118.188 36.1594 118.194 36.8566C118.221 37.6795 118.05 38.0447 117.404 38.1456C117.069 38.2025 113.268 38.157 112.74 38.195L112.081 38.2722C112.081 38.2722 111.805 38.9829 111.547 39.6988C111.296 40.4568 111.069 41.2021 111.069 41.2021C111.069 41.2021 111.262 41.2211 111.424 41.2109C111.701 41.2158 111.97 41.1786 112.18 41.1432C113.347 40.9625 115.066 40.7314 116.498 40.5317C117.265 40.4276 117.636 40.382 118.04 40.8823C118.382 41.3243 118.561 41.7166 118.58 42.239C118.587 42.7376 118.205 43.0782 117.722 43.4274C116.212 44.5369 113.64 45.7402 111.721 45.9102C110.839 45.9994 110.632 45.8966 109.863 45.6822C109.718 45.6377 109.182 45.3751 109.188 45.357C109.158 45.3878 108.883 45.1847 108.785 45.1149M125.024 46.8442C125.024 46.8442 124.693 47.7365 124.453 48.458C124.04 49.683 123.116 52.9774 122.903 54.0049C122.576 55.5343 121.663 59.5076 121.612 59.6109C121.555 59.7327 121.507 59.758 121.36 59.8523C120.998 60.06 120.864 59.9792 120.437 59.7498C119.894 59.4454 119.411 59.1395 118.982 58.5916C118.166 57.4886 118.389 55.4509 118.575 54.256C119.211 50.0794 119.813 48.2363 121.49 44.0986C121.512 44.026 121.518 44.0078 121.493 43.9605C121.02 42.9028 120.758 41.6111 120.774 40.5826C120.815 37.3175 122.763 34.1167 124.915 31.5539C125.072 31.3633 126.14 30.1393 126.61 30.1631C127.079 30.187 127.148 30.7442 127.07 31.1972C126.808 32.7069 125.73 34.2258 124.969 35.4838C124.122 36.8946 123.945 37.4763 123.528 38.7796C123.467 38.9797 123.294 39.9399 123.297 40.06C123.312 40.4023 123.372 40.8576 123.372 40.8576C123.372 40.8576 124.725 39.0249 125.627 37.8893C126.116 37.2635 126.478 36.8574 126.869 36.4203C127.284 35.9707 128.86 34.3847 129.329 33.9518C130.293 33.0729 130.704 32.7013 131.754 32.1873C132.573 31.7812 133.298 31.6841 134.088 32.2226C135.318 33.0742 135.844 34.8039 135.971 36.2134C136.111 37.9047 135.739 39.778 134.965 41.2109C134.053 42.8999 132.828 44.1159 131.173 45.1811C129.476 46.2532 127.505 46.9839 125.585 46.8956C125.319 46.8545 125.024 46.8442 125.024 46.8442ZM132.987 34.9865C131.986 35.7941 130.707 37.4505 130.074 38.2906C129.25 39.4301 128.478 40.7246 127.729 41.7481C127.561 41.9748 127.077 42.7809 127.108 42.8104C127.133 42.8577 127.608 42.8634 128.092 42.7726C129.134 42.6131 130.541 41.9093 131.313 41.3302C132.462 40.4285 133.295 39.1923 133.678 37.7397C133.859 37.0797 133.967 35.6824 133.506 35.045C133.419 34.9392 133.176 34.8254 132.987 34.9865Z" fill="black"/>
<path d="M55.8848 49.3845C56.9368 49.3872 58.199 50.0697 58.7196 50.9037L63.506 58.7984C63.6814 59.0703 63.8071 59.049 63.8048 58.7305L63.7111 51.6694C63.7088 51.3509 63.6892 50.8284 63.8015 50.5249C64.0483 49.8452 64.7511 49.364 65.5866 49.3603L68.4298 49.3524C69.4819 49.355 70.3432 50.1141 70.3501 51.0697L70.5008 66.5513C70.5077 67.5069 69.6562 68.2805 68.6041 68.2779L64.4741 68.2712C64.1192 68.2624 63.6869 68.0513 63.517 67.7611L58.1475 59.1724C57.9721 58.9004 57.8464 58.9217 57.8487 59.2403L57.9305 66.536C57.9374 67.4917 57.0859 68.2653 56.0338 68.2626L53.1906 68.2705C52.1385 68.2679 51.2771 67.5088 51.2703 66.5532L51.1195 51.0716C51.1127 50.116 51.9642 49.3424 53.0163 49.345L55.8848 49.3845Z" fill="black"/>
<path d="M79.5702 64.7819L88.0664 59.7816C88.6996 59.3983 88.7022 58.8031 88.0613 58.4291L79.4293 53.3759C78.7886 53.0019 78.2667 53.2799 78.28 54.019L78.399 64.1271C78.4123 64.8663 78.937 65.165 79.5702 64.7819ZM92.3214 59.0515C92.3707 64.629 87.83 69.1655 82.1854 69.1744C76.5228 69.1776 71.9023 64.651 71.8533 59.0737C71.8038 53.4962 76.3447 48.9597 81.9893 48.951C87.6337 48.9422 92.2724 53.4741 92.3214 59.0515ZM110.461 51.5457L108.971 58.5216C108.838 59.1564 108.621 59.1499 108.496 58.5159L106.867 50.4309C106.675 49.4982 105.717 48.7296 104.737 48.7491L103.662 48.759C102.67 48.7548 101.716 49.5372 101.512 50.4682L99.8301 58.5975C99.6963 59.2322 99.4796 59.2257 99.355 58.5918L97.6713 50.4902C97.4786 49.5573 96.5206 48.7889 95.5231 48.8027L92.7946 48.8257C91.797 48.8398 91.174 49.385 91.384 50.0647L96.4212 66.2005C96.6976 67.1192 97.7446 67.8554 98.7366 67.8595L100.925 67.8506C101.58 67.8516 102.234 67.3356 102.362 66.7191L104.056 58.6136C104.19 57.9789 104.389 57.9799 104.513 58.6136L106.028 66.6838C106.153 67.3177 106.773 67.8246 107.434 67.8073L109.76 67.8008C110.758 67.7869 111.778 67.0449 112.061 66.1179L116.886 50.3443C117.168 49.4173 116.596 48.6868 115.604 48.6824L112.857 48.6999C112.262 48.6974 111.68 48.977 111.271 49.4086C110.814 49.8652 110.595 50.911 110.461 51.5457Z" fill="black"/>
</svg>
