<svg width="160" height="80" viewBox="0 0 160 80" fill="none" xmlns="http://www.w3.org/2000/svg">
<path fill-rule="evenodd" clip-rule="evenodd" d="M19.1399 43.799H13.2534V38.4095H7.2776V43.799H1.39015V30.1314H7.2776V34.8636H13.2534V30.1314H19.1399V43.799ZM27.8814 43.799H21.9949V30.1314H27.8814V43.799ZM45.6312 43.799L45.2779 42.4471C43.571 43.6551 42.0106 44.1058 39.5088 44.1058C34.1813 44.1058 30.3841 41.2572 30.3841 37.2615C30.3841 35.1303 31.3855 33.2249 33.1808 31.852C34.976 30.4792 37.2138 29.8228 40.127 29.8228C45.1022 29.8228 48.2813 31.5853 49.0761 34.7816H43.3661C42.9246 33.7775 41.7475 33.2039 40.1871 33.2039C37.8028 33.2039 36.3607 34.5977 36.3607 36.9128C36.3607 39.2898 37.9503 40.7237 40.5703 40.7237C41.6 40.7237 42.6897 40.4579 43.307 40.0482C43.6311 39.8425 43.7785 39.6376 43.9552 39.2288H41.4234V36.2164H49.6068V43.799H45.6312ZM70.1223 43.799H64.2349V38.4095H58.2591V43.799H52.3717V30.1314H58.2591V34.8636H64.2349V30.1314H70.1223V43.799ZM140.768 28.4126L134.112 32.9008L120.028 19.7457L112.135 27.9492L98.8258 16.3418L74.5268 43.5805H157.018L140.768 28.4126ZM131.636 40.7938L132.255 38.008L123.125 40.9486L122.815 38.008L118.637 40.7938L120.338 35.6401L114.303 40.3304L118.1 31.6508L105.946 40.7929L106.133 36.8983L98.9815 40.3295L103.779 33.0546L93.5638 37.8533L100.746 29.9011L92.3266 33.0546L98.9961 25.9819L90.0042 30.7331L89.3851 30.4236L98.8267 20.0543L112.136 32.126L120.183 23.7687L133.649 36.769L140.768 32.7451L149.744 40.792H138.446L139.651 38.1573L131.636 40.7938Z" fill="black"/>
<path fill-rule="evenodd" clip-rule="evenodd" d="M154.437 24.9785C153.706 24.9788 152.983 25.1229 152.308 25.4026C151.634 25.6823 151.021 26.0921 150.505 26.6088C149.462 27.6521 148.876 29.0669 148.877 30.5419C148.877 32.0169 149.464 33.4313 150.507 34.474C151.55 35.5166 152.965 36.1021 154.44 36.1016C155.915 36.1011 157.33 35.5147 158.372 34.4714C159.415 33.428 160 32.0133 160 30.5382C160 29.0632 159.413 27.6488 158.37 26.6062C157.326 25.5635 155.912 24.978 154.437 24.9785ZM154.437 35.0483C153.844 35.0481 153.258 34.9313 152.711 34.7045C152.164 34.4777 151.667 34.1454 151.248 33.7265C150.83 33.3076 150.498 32.8104 150.271 32.2632C150.045 31.716 149.928 31.1295 149.928 30.5373C149.929 29.9451 150.045 29.3588 150.272 28.8117C150.499 28.2646 150.831 27.7676 151.25 27.349C151.669 26.9303 152.166 26.5983 152.714 26.3719C153.261 26.1454 153.847 26.0289 154.439 26.0291C155.635 26.0295 156.782 26.5049 157.628 27.3509C158.473 28.1969 158.948 29.344 158.948 30.5401C158.947 31.7361 158.472 32.883 157.626 33.7284C156.78 34.5739 155.633 35.0486 154.437 35.0483Z" fill="black"/>
<path fill-rule="evenodd" clip-rule="evenodd" d="M152.534 27.6687H153.907C154.67 27.6687 155.189 27.6951 155.459 27.747C155.868 27.8244 156.2 27.9919 156.457 28.2487C156.713 28.5045 156.841 28.8195 156.841 29.1946C156.841 29.5068 156.752 29.7817 156.576 30.0184C156.4 30.2551 156.147 30.4336 155.82 30.5538C155.494 30.6748 155.04 30.7367 154.462 30.7395L156.941 33.4105H156.089L153.612 30.7395H153.22V33.4105H152.534V27.6687ZM153.22 28.2305V30.1778L154.408 30.186C154.867 30.186 155.207 30.1495 155.427 30.0767C155.649 30.0048 155.82 29.8883 155.942 29.7289C156.064 29.5772 156.13 29.3882 156.129 29.1936C156.129 29.0016 156.065 28.8277 155.941 28.6702C155.816 28.5127 155.651 28.4007 155.448 28.3333C155.245 28.2651 154.907 28.2314 154.435 28.2314L153.22 28.2305Z" fill="black"/>
<path fill-rule="evenodd" clip-rule="evenodd" d="M18.9269 58.1676C18.3379 61.5278 14.8648 63.659 9.94868 63.659C4.1204 63.659 0 60.6675 0 56.467C0 52.3894 4.06213 49.3769 9.59636 49.3769C12.8346 49.3769 15.7779 50.3811 17.4557 52.0616C18.2796 52.9019 18.6037 53.5984 18.7512 54.7664H12.9821C12.7463 53.4955 11.5692 52.7781 9.7138 52.7781C8.65411 52.7781 7.88939 53.0248 7.30037 53.5565C6.4173 54.3349 5.97576 55.38 5.97576 56.6099C5.97576 58.8841 7.47698 60.2769 9.89041 60.2769C11.6857 60.2769 12.7745 59.5386 12.9821 58.1667L18.9269 58.1676ZM40.0614 56.528C40.0614 60.8323 36.1168 63.659 30.0827 63.659C24.0487 63.659 20.104 60.8323 20.104 56.548C20.104 52.1636 24.0187 49.376 30.2002 49.376C36.1168 49.3769 40.0614 52.2455 40.0614 56.528ZM26.0798 56.528C26.0798 58.7821 27.6693 60.2779 30.0827 60.2779C32.4971 60.2779 34.0866 58.7812 34.0866 56.528C34.0866 54.2129 32.4971 52.7572 30.0245 52.7572C27.6693 52.7581 26.0798 54.2748 26.0798 56.528ZM47.685 59.8072H56.4566V63.3513H41.7985V49.6846H47.685V59.8072ZM77.3562 56.528C77.3562 60.8323 73.4116 63.659 67.3775 63.659C61.3435 63.659 57.3988 60.8323 57.3988 56.548C57.3988 52.1636 61.3135 49.376 67.495 49.376C73.4125 49.3769 77.3562 52.2455 77.3562 56.528ZM63.3746 56.528C63.3746 58.7821 64.9641 60.2779 67.3775 60.2779C69.791 60.2779 71.3805 58.7812 71.3805 56.528C71.3805 54.2129 69.791 52.7572 67.3183 52.7572C64.9641 52.7581 63.3746 54.2748 63.3746 56.528ZM103.848 63.3513H97.9901L105.172 49.6837H111.118L118.271 63.3513H112.236L111.324 61.4049H104.789L103.848 63.3513ZM110 58.5773L108.175 54.5606L106.174 58.5773H110ZM128.75 49.6846C134.785 49.6846 138.229 52.1645 138.229 56.508C138.229 59.5204 136.55 61.7536 133.549 62.7577C132.282 63.1883 130.928 63.3513 128.898 63.3513H119.773V49.6837L128.75 49.6846ZM125.601 59.8072H127.749C130.722 59.8072 132.252 58.7002 132.252 56.5699C132.252 54.3767 130.721 53.2287 127.807 53.2287H125.6L125.601 59.8072ZM159.629 56.528C159.629 60.8323 155.685 63.659 149.65 63.659C143.615 63.659 139.671 60.8323 139.671 56.548C139.671 52.1636 143.587 49.376 149.767 49.376C155.685 49.3769 159.629 52.2455 159.629 56.528ZM145.647 56.528C145.647 58.7821 147.235 60.2779 149.649 60.2779C152.061 60.2779 153.651 58.7812 153.651 56.528C153.651 54.2129 152.061 52.7572 149.59 52.7572C147.235 52.7581 145.647 54.2748 145.647 56.528ZM92.9074 57.3746L93.5174 57.1434C95.6959 56.487 96.8139 55.36 96.8139 53.7622C96.8139 52.2046 95.7542 51.0156 93.7823 50.3192C92.5751 49.9095 90.7507 49.6846 88.5421 49.6846H79.0933V63.3522H84.9807V58.6392L88.1579 58.6583L91.6001 63.3386H97.4521L92.9074 57.3746ZM89.8667 55.5439C89.4844 55.6677 89.2786 55.6877 88.3355 55.6877H84.9798V53.0239H88.3637C88.9828 53.0239 89.4252 53.0439 89.6601 53.1058C90.3966 53.2488 90.809 53.6994 90.809 54.3148C90.809 54.8884 90.4549 55.3399 89.8667 55.5439Z" fill="black"/>
</svg>
