<svg width="160" height="80" viewBox="0 0 160 80" fill="none" xmlns="http://www.w3.org/2000/svg">
<path d="M113.67 36.6572H96.9365C96.544 36.6573 96.4023 37.0353 96.4023 37.3662V42.792C96.4023 43.1229 96.6073 43.3418 96.9365 43.3418H113.67V45.5752H96.9365C95.1124 45.5752 93.8711 44.3169 93.8711 42.4766V37.6963C93.8712 35.5893 94.7671 34.4258 96.9365 34.4258L113.67 34.4248V36.6572ZM18.2588 34.4248C20.0043 34.4248 20.7598 36.0917 20.7598 37.6328V38.9219C20.7598 40.8716 19.5956 42.2879 17.5674 42.2881H2.54883V45.5742H0V34.4248H18.2588ZM41.2197 34.4238C42.9335 34.4239 44.1758 35.4776 44.1758 37.2393V42.7598C44.1757 44.5222 42.9334 45.5741 41.2197 45.5742H26.3262C24.6124 45.5742 23.3692 44.5222 23.3691 42.7598V37.2393C23.3691 35.4775 24.6123 34.4238 26.3262 34.4238H41.2197ZM65.2646 34.4248C66.5696 34.4248 67.7654 35.2891 67.7656 36.6572V39.5518C67.7656 40.7627 66.8209 41.4065 65.752 41.6904C67.293 42.4139 67.6083 44.0177 67.7656 45.5742H65.2646C65.1543 43.892 64.4307 42.2881 62.4971 42.2881H49.4756V45.5742H46.9277V34.4248H65.2646ZM90.835 36.6572H73.8828C73.2063 36.6572 72.9229 37.1452 72.9229 37.79C72.9229 38.4032 73.238 38.875 73.8828 38.875H87.7061C89.9707 38.875 91.1973 39.9608 91.1973 42.2725C91.1971 44.2068 90.1597 45.5742 88.1475 45.5742H70.7695V43.3408H87.707C88.2885 43.3408 88.541 42.8384 88.541 42.3193C88.541 41.7233 88.416 41.0928 87.707 41.0928H73.3477C71.4921 41.0925 70.4229 39.6617 70.4229 37.8848C70.4229 35.6673 71.6184 34.4258 73.8838 34.4258L90.835 34.4248V36.6572ZM118.97 38.7646H133.769V34.4248H136.395V45.5742H133.769V40.998H118.97V45.5742H116.405V34.4248H118.97V38.7646ZM160 36.6572H141.631V38.8125H160V41.0293H141.631V43.3408H160V45.5742H139.084V34.4248H160V36.6572ZM27.3955 36.6582C26.5933 36.6582 25.9482 37.0041 25.9482 37.9004V42.0986C25.9483 42.9957 26.6087 43.3408 27.3955 43.3408H40.3223C41.1082 43.3408 41.7529 42.9957 41.7529 42.0986V37.9004C41.7529 37.0041 41.1245 36.6582 40.3223 36.6582H27.3955ZM2.54785 40.0547H17.0791C17.7084 40.0546 18.2578 39.8027 18.2578 39.0947V37.8379C18.2578 37.0992 17.8177 36.6584 17.0791 36.6582H2.54785V40.0547ZM49.4746 36.6582V40.0547H64.6357C65.1382 40.0544 65.2637 39.6291 65.2637 39.2051V37.6953C65.2637 36.9718 64.9966 36.6572 64.2568 36.6572L49.4746 36.6582Z" fill="black"/>
</svg>
