<svg width="160" height="80" viewBox="0 0 160 80" fill="none" xmlns="http://www.w3.org/2000/svg">
<path fill-rule="evenodd" clip-rule="evenodd" d="M122.006 48.9675C122.006 51.0914 123.776 52.8613 126.018 52.8613C128.26 52.8613 130.03 51.0914 130.03 48.9675V36.2242H136.991V50.3835C136.991 55.1032 132.035 58.997 125.9 58.997C119.764 58.997 114.808 55.1032 114.808 50.3835V36.2242H121.888V48.9675H122.006ZM152.92 58.1711H160V21.0029H152.92V58.1711ZM141.003 58.1711H148.083V21.0029H141.003V58.1711ZM11.4454 28.7905H7.55163V58.1711H0V22.7728H12.9794C18.8791 22.7728 23.5988 27.4926 23.5988 33.2743C23.5988 38.1121 20.177 42.3599 15.4572 43.4218L25.8407 58.2891H16.9912L9.43952 46.7256V38.2301H11.2094C14.0413 38.2301 16.2832 36.1062 16.2832 33.6283C16.2994 32.9886 16.1853 32.3522 15.948 31.758C15.7106 31.1637 15.3548 30.6239 14.9023 30.1714C14.4498 29.7189 13.91 29.3632 13.3158 29.1258C12.7215 28.8884 12.0852 28.7743 11.4454 28.7905Z" fill="black"/>
<path fill-rule="evenodd" clip-rule="evenodd" d="M32.5664 44.6017C32.4484 42.2419 34.2183 40.118 36.6962 40C39.0561 39.882 41.1799 41.6519 41.2979 44.1298V44.6017H32.5664ZM48.1416 48.6135L48.2596 47.0796C48.3776 39.41 43.3038 35.1622 36.8142 35.1622C33.7053 35.1933 30.7342 36.4502 28.5469 38.6596C26.3595 40.8691 25.1326 43.8526 25.1327 46.9616C25.1326 50.0707 26.3595 53.0542 28.5469 55.2636C30.7342 57.4731 33.7053 58.73 36.8142 58.761C41.7699 58.761 45.5457 56.5192 47.5516 53.0973L41.7699 50.3835C41.3403 51.2011 40.6957 51.8859 39.9056 52.3642C39.1155 52.8424 38.2098 53.0959 37.2862 53.0973C34.5723 53.0973 32.4484 51.0914 32.4484 48.7315V48.4956L48.1416 48.6135ZM64.1888 52.7433C61.357 52.7433 58.997 50.1475 58.997 47.0796C58.997 43.8938 61.357 41.4159 64.1888 41.4159C67.0207 41.4159 69.3806 44.0118 69.3806 47.0796C69.3806 50.2655 67.0207 52.7433 64.1888 52.7433ZM76.3422 58.1711V21.0029H69.2626V38.584C67.3794 36.7125 64.8378 35.6535 62.1829 35.6342C56.4012 35.6342 51.5634 40.8259 51.5634 47.1976C51.5634 53.5693 56.2832 58.761 62.1829 58.761C64.8968 58.761 67.4927 57.5811 69.3806 55.6932V58.1711H76.3422ZM100.413 52.0354H93.6873V28.7905H98.4071C100.531 28.7905 102.183 30.6784 102.183 32.8023C102.183 34.9262 100.531 36.5782 98.4071 36.5782H95.9292V42.9498H100.413C102.891 42.9498 104.779 44.9557 104.779 47.4336V47.5516C104.661 50.0295 103.127 51.9174 100.413 52.0354ZM106.313 38.938C107.282 38.0814 108.057 37.0277 108.586 35.8475C109.115 34.6673 109.386 33.3877 109.381 32.0944C109.348 29.7195 108.421 27.4444 106.785 25.7227C105.133 23.8348 102.065 22.8908 98.0531 22.8908H86.0177V58.2891H101.711C107.729 58.1711 112.566 53.6873 112.566 48.1416C112.448 44.0118 111.032 41.1799 106.313 38.938Z" fill="black"/>
</svg>
