<svg width="160" height="80" viewBox="0 0 160 80" fill="none" xmlns="http://www.w3.org/2000/svg">
<path d="M31.5803 26.0635L25.875 48.2315L48.043 53.9368L53.7483 31.7688L31.5803 26.0635ZM105.154 28.5453V51.4381H128.044V28.5453H105.154ZM130.78 28.5453L139.721 39.8527L130.78 51.4371H141.78L145.283 46.8893L148.909 51.4361H160L150.783 39.7912L159.447 28.5463H148.447L145.221 32.7556L141.842 28.5463L130.78 28.5453ZM0 28.5473V51.4381H10.1399V42.958C12.8739 42.958 14.1645 45.3545 14.5944 51.4381H25.1026C24.642 47.0442 23.137 43.2658 20.6789 40.4692C22.3686 39.3018 23.2898 37.5188 23.2898 35.3993C23.2898 31.9882 20.7405 28.5473 14.9637 28.5473H0ZM56.112 28.5473V51.4381H72.0893C77.4362 51.4381 79.925 48.6425 79.925 45.1083C79.925 43.1427 79.2182 41.3905 76.3303 39.8547C78.6345 38.5344 79.3105 36.8129 79.3105 34.9376C79.3105 32.2959 77.8353 28.5473 70.4304 28.5473H56.112ZM83.0314 28.5473V51.4381H102.05V45.6931H93.1693V28.5473H83.0314ZM66.2519 33.1557H66.8675C68.9254 33.1557 69.5399 34.1077 69.5399 35.3675C69.5399 36.9956 68.71 37.6111 66.4982 37.6111H66.2519V33.1557ZM10.1399 33.247H10.7544C12.6595 33.247 13.1509 34.5376 13.1509 35.5214C13.1509 36.9966 12.2594 37.6717 10.4159 37.6717H10.1399V33.247ZM38.2049 37.2795L42.5313 38.3914L41.4174 42.7198L37.091 41.6059L38.2049 37.2795ZM114.364 37.756H118.832V42.2244H114.364V37.756ZM66.2519 41.4511H66.9588C69.0783 41.4511 69.7851 42.5262 69.7851 44.0322C69.7851 45.7526 68.8936 46.3989 66.5587 46.3989H66.2519V41.4511Z" fill="black"/>
</svg>
