<svg width="160" height="80" viewBox="0 0 160 80" fill="none" xmlns="http://www.w3.org/2000/svg">
<path d="M151.909 38.5104V41.8463H154.253V45.1561C154.261 45.4518 154.245 45.7708 154.194 46.026C154.101 46.6434 153.514 47.6946 151.85 47.6946C150.196 47.6946 149.62 46.6434 149.52 46.026C149.478 45.7708 149.46 45.4518 149.46 45.1561V34.7022C149.46 34.3324 149.485 33.9276 149.563 33.6213C149.677 33.0641 150.171 31.9654 151.838 31.9654C153.587 31.9654 154.024 33.1238 154.124 33.6213C154.19 33.9509 154.194 34.5036 154.194 34.5036V35.773H159.954V35.0226C159.954 35.0226 159.98 34.2396 159.91 33.5088C159.477 29.2181 155.942 27.8605 151.888 27.8605C147.827 27.8605 144.364 29.2307 143.859 33.5088C143.814 33.9 143.744 34.6038 143.744 35.0226V44.6392C143.744 45.058 143.757 45.3822 143.835 46.1476C144.211 50.3203 147.827 51.7994 151.872 51.7994C155.942 51.7994 159.534 50.3203 159.916 46.1476C159.984 45.3822 159.991 45.058 160 44.6392V38.5104H151.909ZM112.189 28.4759H106.405V45.3972C106.414 45.6921 106.405 46.0234 106.354 46.2663C106.233 46.8343 105.752 47.9275 104.156 47.9275C102.58 47.9275 102.086 46.8343 101.975 46.2663C101.917 46.0234 101.909 45.6921 101.917 45.3972V28.4759H96.1336V44.8721C96.1263 45.2947 96.1595 46.1582 96.1844 46.3844C96.5836 50.6569 99.9509 52.0441 104.156 52.0441C108.369 52.0441 111.734 50.6569 112.14 46.3844C112.172 46.1582 112.214 45.2947 112.189 44.8721V28.4759ZM59.0372 28.4759L56.1515 46.3556L53.2676 28.4759H43.9363L43.4414 51.3492H49.1581L49.3129 30.1747L53.2462 51.3492H59.0463L62.9832 30.1747L63.1386 51.3492H68.8697L68.358 28.4759H59.0372ZM24.4881 28.4759L20.2511 51.3492H26.4298L29.6227 30.1747L32.739 51.3492H38.8748L34.6554 28.4759H24.4881ZM132.406 46.8916L127.02 28.4759H118.532V51.1107H124.147L123.821 32.1058L129.606 51.1107H137.746V28.4759H132.095L132.406 46.8916ZM80.4679 34.4287C80.3662 33.977 80.3956 33.4971 80.4482 33.2462C80.6118 32.514 81.1038 31.7154 82.5212 31.7154C83.8423 31.7154 84.6168 32.539 84.6168 33.7749V35.1736H90.256V33.5793C90.256 28.6509 85.8374 27.8767 82.6384 27.8767C78.6093 27.8767 75.3189 29.2048 74.718 32.9132C74.5591 33.9224 74.5197 34.8182 74.7726 35.9613C75.7524 40.5851 83.802 41.9265 84.9704 44.8506C85.1766 45.4046 85.1176 46.1109 85.0124 46.5271C84.8374 47.2881 84.3254 48.0535 82.8078 48.0535C81.3845 48.0535 80.5278 47.2352 80.5278 46.002L80.526 43.8068H74.4563V45.5517C74.4563 50.6079 78.4166 52.1334 82.6821 52.1334C86.7673 52.1334 90.1414 50.7374 90.6827 46.9533C90.9409 44.9981 90.7462 43.7245 90.6425 43.2449C89.6968 38.5024 81.1173 37.0759 80.4679 34.4287ZM6.07974 34.3726C5.96901 33.9115 5.99485 33.4248 6.05653 33.1711C6.21278 32.4424 6.70768 31.6297 8.15007 31.6297C9.48791 31.6297 10.2756 32.4612 10.2756 33.7071V35.1227H15.9809V33.5159C15.9809 28.5402 11.4948 27.7472 8.26081 27.7472C4.19795 27.7472 0.878184 29.0959 0.270797 32.8309C0.104559 33.8563 0.07606 34.7583 0.316313 35.914C1.30669 40.5904 9.43592 41.9426 10.6187 44.9017C10.8401 45.4518 10.7732 46.1582 10.6633 46.5905C10.4757 47.3595 9.95961 48.1357 8.4294 48.1357C7.00051 48.1357 6.14582 47.3034 6.14582 46.0531L6.13789 43.852H0V45.601C0 50.7151 4.01644 52.2529 8.31514 52.2529C12.4479 52.2529 15.8417 50.8446 16.3953 47.0167C16.6705 45.0436 16.4641 43.7595 16.3712 43.2725C15.4058 38.4719 6.73089 37.05 6.07974 34.3726Z" fill="black"/>
</svg>
