<svg width="160" height="80" viewBox="0 0 160 80" fill="none" xmlns="http://www.w3.org/2000/svg">
<path fill-rule="evenodd" clip-rule="evenodd" d="M16 29.3015V38.2267H42.1074C45.142 38.2267 49.019 35.4207 49.019 30.7789C49.019 28.912 49.733 27.6943 47.5388 25.2248L44.1994 21.2681C42.2859 19.4831 44.428 19.4831 46.0352 19.4831H57.058V38.2267H65.7998V19.4831H77.5817V11.4561H39.4299C34.7881 11.4561 32.5183 15.913 32.646 18.2336C32.7744 20.5541 33.2013 23.4737 37.0585 26.981C40.5771 30.1792 35.3165 29.3015 34.7881 29.3015H16ZM96.9117 11.4561H82.8091L74.9035 38.2274H83.7017L85.129 34.4788H94.4112L95.7891 38.2274H104.407L96.9117 11.4561ZM87.0932 28.052L90.1278 18.2336L92.9846 28.052H87.0932ZM132.256 29.3015C128.865 29.3015 128.865 28.052 128.865 28.052C131.771 28.052 134.347 23.818 134.347 19.4831C134.347 15.1482 130.114 11.4561 126.721 11.4561H107.748V38.2274H117.389V29.3022C117.389 29.3022 121.494 34.1218 123.636 36.0854C125.778 38.0489 125.956 38.2274 128.864 38.2274H143.997V29.3022C143.999 29.3015 135.648 29.3015 132.256 29.3015ZM123.509 23.0539H117.39V18.2336H123.509C126.314 18.2336 126.799 23.0539 123.509 23.0539ZM16 41.6183H25.8629L28.3619 50.5449L30.6825 41.6183H41.0364L43.714 50.5449L46.3922 41.6183H54.9604L47.1055 68.396H39.2514L35.8097 55.7208L31.932 68.396H23.8993L16 41.6183ZM75.2019 41.7728H61.0994L53.1944 68.5434H61.9919L63.42 64.7956H72.7029L74.0808 68.5434H82.6998L75.2019 41.7728ZM65.3842 58.368L68.4188 48.5496L71.2748 58.368H65.3842ZM132.434 49.6524C130.829 49.6524 129.078 49.84 130.992 51.6244L134.333 55.5818C136.526 58.0512 136.491 59.0806 136.491 60.9489C136.491 65.59 131.899 68.396 128.865 68.396L107.771 68.5378C104.865 68.5378 104.688 68.36 102.545 66.3965C100.403 64.4329 96.2971 59.6126 96.2971 59.6126V68.5378H86.6579V41.7671H105.631C109.022 41.7671 113.257 45.46 113.257 49.7942C113.257 54.1298 110.68 58.3631 107.773 58.3631C107.773 58.3631 109.051 59.6486 111.193 59.6486C113.336 59.6486 121.584 59.657 121.584 59.657C122.112 59.657 127.372 60.5348 123.854 57.3365C119.997 53.8292 119.57 50.9111 119.441 48.5905C119.313 46.27 121.319 41.619 125.959 41.619H144V49.6531L132.434 49.6524ZM102.416 53.3643H96.2964V48.5439H102.416C105.222 48.5439 105.707 53.3643 102.416 53.3643Z" fill="black"/>
</svg>
