<svg width="160" height="80" viewBox="0 0 160 80" fill="none" xmlns="http://www.w3.org/2000/svg">
<path d="M156.47 22.2637L147.73 40.9612L144.443 33.8766H140.889L146.293 45.4651H149.166L160 22.2637H156.47Z" fill="black"/>
<path d="M118.977 56.9807H126.013V44.1018C126.013 41.1559 127.718 39.0866 130.25 39.0866C132.684 39.0866 133.95 40.7908 133.95 43.2497V56.9807H140.986V41.9107C140.986 36.7981 137.918 33.1949 132.952 33.1949C129.787 33.1949 127.572 34.5583 125.916 37.0415H125.77V33.8766H118.953L118.977 56.9807ZM105.149 33.2436C97.7967 33.2436 92.8789 38.5266 92.8789 45.4895C92.8789 52.4037 97.7967 57.7354 105.149 57.7354C112.502 57.7354 117.419 52.4037 117.419 45.4895C117.444 38.5266 112.502 33.2436 105.149 33.2436ZM105.1 52.5254C101.765 52.5254 99.9878 49.7256 99.9878 45.4895C99.9878 41.2046 101.741 38.4536 105.1 38.4536C108.436 38.4536 110.286 41.2046 110.286 45.4895C110.31 49.7256 108.46 52.5254 105.1 52.5254ZM72.818 56.9807H92.5867V51.4298H81.3877V51.2838L92.0998 39.2813V33.8522H72.818V39.4274H83.6519V39.5735L72.818 51.6733V56.9807ZM63.7858 56.9807H70.8704V33.8766H63.7858V56.9807ZM47.3524 56.9807H54.4127V46.3659C54.4127 41.5455 57.3098 39.403 61.7164 40.0117H61.8625V33.9253C61.4973 33.7792 61.0834 33.7548 60.4261 33.7548C57.675 33.7548 55.8247 35.0208 54.2422 37.7232H54.0962V33.8766H47.3524V56.9807ZM34.4005 52.5497C31.2842 52.5497 29.3853 50.529 29.0201 47.4128H45.6726C45.7212 42.4463 44.4066 38.4779 41.6555 35.9947C39.7079 34.1931 37.1516 33.1949 33.8892 33.1949C26.9264 33.1949 22.1059 38.4779 22.1059 45.3921C22.1059 52.355 26.7072 57.6623 34.3518 57.6623C37.2489 57.6623 39.5374 56.8833 41.4364 55.5929C43.4571 54.2052 44.9178 52.1602 45.3074 50.1395H38.5393C37.8819 51.6489 36.4699 52.5497 34.4005 52.5497ZM34.0353 38.2345C36.5186 38.2345 38.2228 40.0847 38.5149 42.7871H29.0688C29.6287 40.0604 31.1138 38.2345 34.0353 38.2345ZM8.03408 56.9807H15.4352L23.4693 33.8766H16.3847L11.8807 48.7275H11.7833L7.27937 33.8766H0L8.03408 56.9807ZM63.7858 25.6477H70.8704V31.9289H63.7858V25.6477Z" fill="black"/>
</svg>
