<svg width="160" height="80" viewBox="0 0 160 80" fill="none" xmlns="http://www.w3.org/2000/svg">
<path fill-rule="evenodd" clip-rule="evenodd" d="M74.0661 54.6357C73.0594 53.954 72.3369 52.8986 71.9149 51.4619C71.4926 50.025 71.2734 48.1174 71.2734 45.7306V42.4836C71.2734 40.0727 71.5169 38.1407 72.004 36.6793C72.4911 35.2182 73.2542 34.1549 74.285 33.4891C75.3161 32.8235 76.6718 32.4827 78.352 32.4827C80.0082 32.4827 81.3314 32.8235 82.3297 33.5055C83.3282 34.1872 84.0588 35.2508 84.5216 36.6957C84.9843 38.1407 85.2117 40.0727 85.2117 42.4754V45.7226C85.2117 48.1092 84.9843 50.025 84.5377 51.4699C84.0913 52.9148 83.3609 53.9783 82.3461 54.6439C81.3394 55.3095 79.9675 55.6508 78.2384 55.6508C76.4687 55.6586 75.0725 55.3177 74.0661 54.6357ZM79.7239 51.129C80 50.3984 80.1462 49.205 80.1462 47.5573V40.5841C80.1462 38.9767 80.0082 37.8078 79.7239 37.0611C79.4481 36.3223 78.9528 35.9489 78.2465 35.9489C77.5648 35.9489 77.0857 36.3223 76.8016 37.0611C76.5256 37.7997 76.3796 38.9767 76.3796 40.5841V47.5573C76.3796 49.2132 76.5094 50.4066 76.7773 51.129C77.0452 51.8596 77.5323 52.2248 78.2386 52.2248C78.9528 52.2248 79.4399 51.8596 79.7239 51.129ZM151.566 46.916C151.566 48.3527 151.606 49.4242 151.696 50.1467C151.777 50.8611 151.955 51.3887 152.223 51.7136C152.491 52.0382 152.905 52.2087 153.465 52.2087C154.22 52.2087 154.74 51.9165 155.016 51.3319C155.292 50.7474 155.446 49.7733 155.47 48.4096L159.813 48.6613C159.838 48.856 159.846 49.1238 159.846 49.4647C159.846 51.5349 159.277 53.0771 158.149 54.1C157.021 55.1228 155.422 55.6342 153.352 55.6342C150.867 55.6342 149.13 54.8549 148.132 53.2963C147.133 51.7378 146.638 49.3349 146.638 46.0717V42.1671C146.638 38.8063 147.158 36.3627 148.189 34.8126C149.22 33.2701 150.989 32.4988 153.498 32.4988C155.227 32.4988 156.55 32.8156 157.475 33.4486C158.401 34.0817 159.05 35.0639 159.432 36.4034C159.805 37.7428 160 39.5938 160 41.9478V45.7795H151.566V46.916ZM152.207 36.3709C151.955 36.6877 151.785 37.2071 151.695 37.9215C151.606 38.6358 151.566 39.7318 151.566 41.1847V42.7922H155.251V41.1847C155.251 39.7478 155.202 38.6601 155.105 37.9215C155.007 37.1827 154.829 36.6552 154.577 36.3548C154.326 36.0544 153.928 35.9002 153.392 35.9002C152.856 35.892 152.459 36.0544 152.207 36.3709ZM61.8082 45.3654L56.0773 24.6734H61.0776L63.0828 34.0494C63.5942 36.363 63.9676 38.3274 64.2111 39.959H64.3571C64.5277 38.79 64.901 36.8337 65.4857 34.0817L67.5636 24.6652H72.5641L66.7682 45.3654V55.2933H61.8082V45.3654ZM101.471 32.9211V55.2852H97.5342L97.0957 52.5496H96.9902C95.9187 54.6196 94.3115 55.6506 92.1764 55.6506C90.6911 55.6506 89.595 55.1635 88.889 54.1893C88.1827 53.2152 87.8336 51.6973 87.8336 49.6273V32.9211H92.8666V49.343C92.8666 50.3415 92.9721 51.056 93.1913 51.4781C93.4105 51.9001 93.7757 52.1193 94.2872 52.1193C94.7256 52.1193 95.1476 51.9893 95.5453 51.7216C95.9431 51.4537 96.2435 51.1127 96.4383 50.6988V32.9209L101.471 32.9211ZM127.302 32.9211V55.2852H123.365L122.926 52.5496H122.821C121.749 54.6196 120.142 55.6506 118.007 55.6506C116.522 55.6506 115.426 55.1635 114.719 54.1893C114.013 53.2152 113.664 51.6973 113.664 49.6273V32.9211H118.697V49.343C118.697 50.3415 118.803 51.056 119.022 51.4781C119.241 51.9001 119.606 52.1193 120.118 52.1193C120.556 52.1193 120.978 51.9893 121.376 51.7216C121.774 51.4537 122.074 51.1127 122.269 50.6988V32.9209L127.302 32.9211Z" fill="black"/>
<path fill-rule="evenodd" clip-rule="evenodd" d="M115.158 28.7242H110.157V55.2852H105.23V28.7242H100.229V24.6736H115.149L115.158 28.7242ZM143.967 36.5008C143.659 35.0884 143.172 34.0656 142.49 33.4325C141.808 32.7992 140.875 32.4827 139.681 32.4827C138.756 32.4827 137.895 32.7423 137.092 33.2701C136.288 33.7895 135.671 34.4797 135.233 35.3319H135.192V23.545H130.338V55.2933H134.494L135.005 53.1747H135.111C135.501 53.9296 136.085 54.5222 136.864 54.9604C137.644 55.3989 138.504 55.6181 139.454 55.6181C141.159 55.6181 142.409 54.8306 143.213 53.2638C144.016 51.6973 144.414 49.2457 144.414 45.9093V42.3699C144.422 39.8697 144.268 37.9131 143.967 36.5008ZM139.348 45.6251C139.348 47.2569 139.283 48.5312 139.146 49.4567C139.016 50.3822 138.788 51.0396 138.472 51.4294C138.155 51.8189 137.733 52.0138 137.197 52.0138C136.783 52.0138 136.402 51.9165 136.045 51.7216C135.696 51.5267 135.403 51.2345 135.184 50.8448V38.1407C135.355 37.5318 135.647 37.0367 136.061 36.6472C136.475 36.2574 136.921 36.0626 137.408 36.0626C137.92 36.0626 138.317 36.2654 138.593 36.6631C138.87 37.0611 139.064 37.7428 139.178 38.6845C139.284 39.6343 139.34 40.9819 139.34 42.7351L139.348 45.6251Z" fill="black"/>
<path fill-rule="evenodd" clip-rule="evenodd" d="M45.4511 23.2042C47.6509 23.7968 49.38 25.5257 49.9644 27.7175C51.028 31.6952 51.028 39.9997 51.028 39.9997C51.028 39.9997 51.028 48.3041 49.9644 52.2817C49.3718 54.4815 47.6429 56.2107 45.4511 56.7951C41.4734 57.8586 25.514 57.8586 25.514 57.8586C25.514 57.8586 9.56274 57.8586 5.57692 56.7951C3.37707 56.2025 1.64794 54.4736 1.06353 52.2817C0 48.3041 0 39.9995 0 39.9995C0 39.9995 0 31.6952 1.06353 27.7175C1.65613 25.5177 3.38525 23.7886 5.57692 23.2042C9.56274 22.1406 25.514 22.1406 25.514 22.1406C25.514 22.1406 41.4734 22.1406 45.4511 23.2042ZM20.4162 47.6546L33.6723 39.9995L20.4162 32.3446V47.6546Z" fill="black"/>
</svg>
