<svg preserveAspectRatio="xMidYMid meet" width="100%" height="100%" overflow="visible" style="display: block;" viewBox="0 0 64 33.0768" fill="none" xmlns="http://www.w3.org/2000/svg">
<g id="Vector">
<path d="M33.47 21.1299C35.965 20.3064 37.3298 17.5809 36.5194 15.0456C35.7091 12.5103 33.0269 11.1235 30.532 11.9469C28.037 12.7703 26.6722 15.4958 27.4825 18.0312C28.2929 20.5665 30.975 21.9533 33.47 21.1299Z" fill="var(--fill-0, #FCFAF5)"/>
<path d="M59.7683 0.195023C59.6735 0.132423 59.5811 0.0674154 59.4958 0H4.348L34.1124 6.71746C41.467 8.37637 44.2984 17.4991 39.2137 23.1476L37.0907 25.5071L64 14.1934C63.647 9.27684 62.2064 4.48072 59.7683 0.195023Z" fill="var(--fill-0, #FCFAF5)"/>
<path d="M24.7863 9.9268L26.9093 7.56727L0 18.881C0.353041 23.7975 1.79364 28.5937 4.23175 32.8793C4.32652 32.9444 4.41893 33.0094 4.50423 33.0768H59.652L29.8876 26.3593C22.533 24.7004 19.7016 15.5777 24.7863 9.92921V9.9268Z" fill="var(--fill-0, #FCFAF5)"/>
</g>
</svg>
